<svg xmlns="http://www.w3.org/2000/svg" viewBox="0 0 264.63 21.36"><defs><style>.cls-1{fill:#383838;}</style></defs><title>Asset 5</title><g id="Layer_2" data-name="Layer 2"><g id="Layer_1-2" data-name="Layer 1"><path class="cls-1" d="M14.85,19.26v1.92H0V.18H14.4V2.1H2.22V9.57H13.08v1.89H2.22v7.8Z"/><path class="cls-1" d="M18.06,18.63l.87-1.71a10.31,10.31,0,0,0,6.93,2.55c3.93,0,5.64-1.65,5.64-3.72,0-5.76-12.93-2.22-12.93-10C18.57,2.67,21,0,26.31,0a11.85,11.85,0,0,1,6.51,1.86l-.75,1.77a10.81,10.81,0,0,0-5.76-1.74c-3.84,0-5.55,1.71-5.55,3.81,0,5.76,12.93,2.28,12.93,9.93,0,3.09-2.46,5.73-7.83,5.73C22.71,21.36,19.62,20.25,18.06,18.63Z"/><path class="cls-1" d="M56.07,15.57c0,3.57-2.64,5.61-7.89,5.61H38.52V.18h9.06c4.68,0,7.38,2,7.38,5.4a4.88,4.88,0,0,1-3.21,4.77A5,5,0,0,1,56.07,15.57ZM40.74,2V9.63h6.69c3.36,0,5.31-1.29,5.31-3.81S50.79,2,47.43,2ZM53.85,15.39c0-2.73-2-3.93-5.7-3.93H40.74v7.89h7.41C51.84,19.35,53.85,18.15,53.85,15.39Z"/><path class="cls-1" d="M76,19.26v1.92H61.14V.18h14.4V2.1H63.36V9.57H74.22v1.89H63.36v7.8Z"/><path class="cls-1" d="M98.76.18v21H96.93l-13.5-17v17H81.21V.18H83l13.53,17V.18Z"/><path class="cls-1" d="M120,11.31l-4.29,4.35v5.52h-2.22V.18h2.22V12.87L128,.18h2.55l-9.09,9.51,9.72,11.49h-2.64Z"/><path class="cls-1" d="M134.79.18H137V19.26h11.76v1.92h-14Z"/><path class="cls-1" d="M167.31,19.26v1.92H152.46V.18h14.4V2.1H154.68V9.57h10.86v1.89H154.68v7.8Z"/><path class="cls-1" d="M194.34.18v21h-2.13V4.38L184,18.51h-1.05l-8.25-14V21.18h-2.13V.18h1.83l9.12,15.57,9-15.57Z"/><path class="cls-1" d="M214.35,15.57h-11.7l-2.52,5.61h-2.31l9.6-21h2.19l9.6,21h-2.34Zm-.81-1.8-5-11.28-5,11.28Z"/><path class="cls-1" d="M240.24.18v21h-1.83l-13.5-17v17h-2.22V.18h1.83l13.53,17V.18Z"/><path class="cls-1" d="M264.62.18v21H262.8l-13.5-17v17h-2.22V.18h1.83l13.53,17V.18Z"/></g></g></svg>