<svg xmlns="http://www.w3.org/2000/svg" viewBox="0 0 311 138"><defs><style>.cls-1{fill:#fff;}</style></defs><title>Asset 9</title><g id="Layer_2" data-name="Layer 2"><g id="Layer_1-2" data-name="Layer 1"><path class="cls-1" d="M134,68.13h-3.68v-7h3.83a5.58,5.58,0,0,1,3.4.84,3.64,3.64,0,0,1-.05,5.26A5.42,5.42,0,0,1,134,68.13Z"/><path class="cls-1" d="M138.27,71.32a3.09,3.09,0,0,1,1.11,2.52,4.3,4.3,0,0,1-.26,1.5,2.92,2.92,0,0,1-.8,1.17,3.81,3.81,0,0,1-1.41.78,6.65,6.65,0,0,1-2.08.29h-4.5V70.39h4.5A5.29,5.29,0,0,1,138.27,71.32Z"/><path class="cls-1" d="M19,20v98H291V20ZM142,76.43a5.47,5.47,0,0,1-1.49,2,6.86,6.86,0,0,1-2.4,1.27,10.75,10.75,0,0,1-3.24.45h-7.75V58.57h7a13.44,13.44,0,0,1,3.47.39A6.51,6.51,0,0,1,140,60.09a4.39,4.39,0,0,1,1.37,1.78,5.88,5.88,0,0,1,.44,2.36,4.71,4.71,0,0,1-.24,1.5,4.28,4.28,0,0,1-.73,1.34,5.23,5.23,0,0,1-1.25,1.12,7.25,7.25,0,0,1-1.77.82q4.69.93,4.7,4.91A6,6,0,0,1,142,76.43Zm21.67-4.82a9.88,9.88,0,0,1-.6,3.49,8,8,0,0,1-1.72,2.78,7.9,7.9,0,0,1-2.73,1.83,10.23,10.23,0,0,1-7.23,0,7.9,7.9,0,0,1-2.73-1.83A8,8,0,0,1,147,75.1a9.88,9.88,0,0,1-.6-3.49v-13h3.2v13a7.45,7.45,0,0,0,.37,2.42A5.19,5.19,0,0,0,151,75.89a4.73,4.73,0,0,0,1.72,1.22,6.28,6.28,0,0,0,4.62,0,4.77,4.77,0,0,0,1.73-1.22A5.4,5.4,0,0,0,160.14,74a7.39,7.39,0,0,0,.37-2.41v-13h3.18Zm13.44,0v8.52H174V71.59l-7.89-13h2.81a1,1,0,0,1,.67.21,1.5,1.5,0,0,1,.42.53l4.68,8c.19.37.36.72.52,1s.29.66.41,1c.11-.32.24-.65.39-1s.31-.68.5-1l4.66-8a1.78,1.78,0,0,1,.42-.5.92.92,0,0,1,.66-.24H185Z"/><line class="cls-1" y1="20" x2="311" y2="20"/><line class="cls-1" y1="118" x2="311" y2="118"/><line class="cls-1" x1="19" x2="19" y2="138"/><line class="cls-1" x1="291" x2="291" y2="138"/></g></g></svg>