<svg xmlns="http://www.w3.org/2000/svg" viewBox="0 0 311 138"><defs><style>.cls-1{fill:#383838;}.cls-2{fill:none;stroke:#383838;stroke-miterlimit:10;}</style></defs><title>Asset 3</title><g id="Layer_2" data-name="Layer 2"><g id="Layer_1-2" data-name="Layer 1"><path class="cls-1" d="M80,67.81a4.44,4.44,0,0,1-1.57.84,7.11,7.11,0,0,1-2.17.3H73.33V61.08h3A6,6,0,0,1,80,62a3.35,3.35,0,0,1,1.22,2.81,4.29,4.29,0,0,1-.32,1.67A3.48,3.48,0,0,1,80,67.81Z"/><path class="cls-1" d="M114.61,63.73a18.62,18.62,0,0,1-.69-2.16q-.17.65-.33,1.2c-.12.37-.23.7-.34,1l-3.18,8.33h7.74Zm0,0a18.62,18.62,0,0,1-.69-2.16q-.17.65-.33,1.2c-.12.37-.23.7-.34,1l-3.18,8.33h7.74Zm0,0a18.62,18.62,0,0,1-.69-2.16q-.17.65-.33,1.2c-.12.37-.23.7-.34,1l-3.18,8.33h7.74Zm27.2,2.17a7.44,7.44,0,0,0-1.49-2.58A6.49,6.49,0,0,0,138,61.71a8.15,8.15,0,0,0-3.07-.56H130V77.53h4.89A8.15,8.15,0,0,0,138,77a6.49,6.49,0,0,0,2.34-1.61,7.44,7.44,0,0,0,1.49-2.58,11.67,11.67,0,0,0,0-6.89Zm0,0a7.44,7.44,0,0,0-1.49-2.58A6.49,6.49,0,0,0,138,61.71a8.15,8.15,0,0,0-3.07-.56H130V77.53h4.89A8.15,8.15,0,0,0,138,77a6.49,6.49,0,0,0,2.34-1.61,7.44,7.44,0,0,0,1.49-2.58,11.67,11.67,0,0,0,0-6.89Zm-27.2-2.17a18.62,18.62,0,0,1-.69-2.16q-.17.65-.33,1.2c-.12.37-.23.7-.34,1l-3.18,8.33h7.74Zm0,0a18.62,18.62,0,0,1-.69-2.16q-.17.65-.33,1.2c-.12.37-.23.7-.34,1l-3.18,8.33h7.74Zm27.2,2.17a7.44,7.44,0,0,0-1.49-2.58A6.49,6.49,0,0,0,138,61.71a8.15,8.15,0,0,0-3.07-.56H130V77.53h4.89A8.15,8.15,0,0,0,138,77a6.49,6.49,0,0,0,2.34-1.61,7.44,7.44,0,0,0,1.49-2.58,11.67,11.67,0,0,0,0-6.89Zm59.64,0A7.4,7.4,0,0,0,200,63.3a6.57,6.57,0,0,0-2.34-1.64,8.55,8.55,0,0,0-6.14,0,6.61,6.61,0,0,0-2.35,1.64,7.27,7.27,0,0,0-1.5,2.59,11.74,11.74,0,0,0,0,6.91,7.27,7.27,0,0,0,1.5,2.59A6.58,6.58,0,0,0,191.48,77a8.7,8.7,0,0,0,6.14,0A6.54,6.54,0,0,0,200,75.39a7.4,7.4,0,0,0,1.49-2.59,11.74,11.74,0,0,0,0-6.91ZM219.12,62a5.91,5.91,0,0,0-3.66-.94h-3V69h2.91a7.16,7.16,0,0,0,2.17-.3,4.53,4.53,0,0,0,1.57-.84A3.48,3.48,0,0,0,220,66.5a4.29,4.29,0,0,0,.32-1.67A3.33,3.33,0,0,0,219.12,62Zm0,0a5.91,5.91,0,0,0-3.66-.94h-3V69h2.91a7.16,7.16,0,0,0,2.17-.3,4.53,4.53,0,0,0,1.57-.84A3.48,3.48,0,0,0,220,66.5a4.29,4.29,0,0,0,.32-1.67A3.33,3.33,0,0,0,219.12,62Zm-17.67,3.87A7.4,7.4,0,0,0,200,63.3a6.57,6.57,0,0,0-2.34-1.64,8.55,8.55,0,0,0-6.14,0,6.61,6.61,0,0,0-2.35,1.64,7.27,7.27,0,0,0-1.5,2.59,11.74,11.74,0,0,0,0,6.91,7.27,7.27,0,0,0,1.5,2.59A6.58,6.58,0,0,0,191.48,77a8.7,8.7,0,0,0,6.14,0A6.54,6.54,0,0,0,200,75.39a7.4,7.4,0,0,0,1.49-2.59,11.74,11.74,0,0,0,0-6.91Zm-59.64,0a7.44,7.44,0,0,0-1.49-2.58A6.49,6.49,0,0,0,138,61.71a8.15,8.15,0,0,0-3.07-.56H130V77.53h4.89A8.15,8.15,0,0,0,138,77a6.49,6.49,0,0,0,2.34-1.61,7.44,7.44,0,0,0,1.49-2.58,11.67,11.67,0,0,0,0-6.89Zm-27.2-2.17a18.62,18.62,0,0,1-.69-2.16q-.17.65-.33,1.2c-.12.37-.23.7-.34,1l-3.18,8.33h7.74ZM19,20v98H291V20ZM83.44,80.11a1.32,1.32,0,0,1-1.24-.67L76.87,72a1.52,1.52,0,0,0-.55-.53,1.93,1.93,0,0,0-.9-.16H73.33v8.83H70.14V58.57h6.21a13.42,13.42,0,0,1,3.59.43,6.9,6.9,0,0,1,2.49,1.22,4.79,4.79,0,0,1,1.46,1.89A6.72,6.72,0,0,1,84,66.72a5.51,5.51,0,0,1-1,1.78,6.38,6.38,0,0,1-1.63,1.35,8,8,0,0,1-2.17.87,3.3,3.3,0,0,1,1,1l6.06,8.38Zm19,0H89.05V58.57H102.4v2.6H92.26V68h8.16V70.5H92.26v7h10.16Zm19.26,0a1.09,1.09,0,0,1-.69-.21,1.18,1.18,0,0,1-.39-.54l-1.9-5h-9.5l-1.9,5a1.19,1.19,0,0,1-.39.52,1,1,0,0,1-.69.23h-2.46l8.58-21.54h3.22l8.58,21.54Zm23.17-6.37a9.55,9.55,0,0,1-5.56,5.59,11.71,11.71,0,0,1-4.36.78h-8.1V58.57h8.1a11.71,11.71,0,0,1,4.36.78,9.89,9.89,0,0,1,3.38,2.2A9.73,9.73,0,0,1,144.83,65a12.9,12.9,0,0,1,0,8.78Zm35,6.37h-2.79V64.78c0-.23,0-.47,0-.73s0-.53,0-.8L170,76.41a1.21,1.21,0,0,1-1.15.73h-.45a1.19,1.19,0,0,1-1.14-.73l-7.31-13.2a14.74,14.74,0,0,1,.09,1.57V80.11h-2.8V58.57h2.37a1.84,1.84,0,0,1,.65.09.87.87,0,0,1,.44.45l7.2,12.9a9.09,9.09,0,0,1,.39.83c.12.29.24.58.35.87a14.4,14.4,0,0,1,.73-1.71l7.07-12.89a.82.82,0,0,1,.43-.45,1.84,1.84,0,0,1,.65-.09h2.37Zm24.62-6.33a10.22,10.22,0,0,1-2.18,3.48,9.91,9.91,0,0,1-3.38,2.27,12.14,12.14,0,0,1-8.72,0,9.78,9.78,0,0,1-3.37-2.27,10.4,10.4,0,0,1-2.19-3.48,13,13,0,0,1,0-8.86,10.34,10.34,0,0,1,2.19-3.49,9.94,9.94,0,0,1,3.37-2.28,12,12,0,0,1,8.72,0,9.85,9.85,0,0,1,5.56,5.77,13.13,13.13,0,0,1,0,8.86Zm18.08,6.33a1.32,1.32,0,0,1-1.24-.67L216,72a1.52,1.52,0,0,0-.55-.53,1.93,1.93,0,0,0-.9-.16h-2.09v8.83h-3.19V58.57h6.21a13.48,13.48,0,0,1,3.59.43,7.07,7.07,0,0,1,2.49,1.22A4.76,4.76,0,0,1,223,62.11a6.21,6.21,0,0,1,.48,2.49,6.41,6.41,0,0,1-.35,2.12,5.7,5.7,0,0,1-1,1.78,6.56,6.56,0,0,1-1.63,1.35,8,8,0,0,1-2.17.87,3.3,3.3,0,0,1,1,1l6.06,8.38Zm19,0H228.16V58.57h13.35v2.6H231.37V68h8.16V70.5h-8.16v7h10.16ZM220,66.5a4.29,4.29,0,0,0,.32-1.67A3.33,3.33,0,0,0,219.12,62a5.91,5.91,0,0,0-3.66-.94h-3V69h2.91a7.16,7.16,0,0,0,2.17-.3,4.53,4.53,0,0,0,1.57-.84A3.48,3.48,0,0,0,220,66.5ZM200,63.3a6.57,6.57,0,0,0-2.34-1.64,8.55,8.55,0,0,0-6.14,0,6.61,6.61,0,0,0-2.35,1.64,7.27,7.27,0,0,0-1.5,2.59,11.74,11.74,0,0,0,0,6.91,7.27,7.27,0,0,0,1.5,2.59A6.58,6.58,0,0,0,191.48,77a8.7,8.7,0,0,0,6.14,0A6.54,6.54,0,0,0,200,75.39a7.4,7.4,0,0,0,1.49-2.59,11.74,11.74,0,0,0,0-6.91A7.4,7.4,0,0,0,200,63.3Zm-59.64,0A6.49,6.49,0,0,0,138,61.71a8.15,8.15,0,0,0-3.07-.56H130V77.53h4.89A8.15,8.15,0,0,0,138,77a6.49,6.49,0,0,0,2.34-1.61,7.44,7.44,0,0,0,1.49-2.58,11.67,11.67,0,0,0,0-6.89A7.44,7.44,0,0,0,140.32,63.32Zm-26.4-1.75q-.17.65-.33,1.2c-.12.37-.23.7-.34,1l-3.18,8.33h7.74l-3.2-8.36A18.62,18.62,0,0,1,113.92,61.57Zm.69,2.16a18.62,18.62,0,0,1-.69-2.16q-.17.65-.33,1.2c-.12.37-.23.7-.34,1l-3.18,8.33h7.74Zm27.2,2.17a7.44,7.44,0,0,0-1.49-2.58A6.49,6.49,0,0,0,138,61.71a8.15,8.15,0,0,0-3.07-.56H130V77.53h4.89A8.15,8.15,0,0,0,138,77a6.49,6.49,0,0,0,2.34-1.61,7.44,7.44,0,0,0,1.49-2.58,11.67,11.67,0,0,0,0-6.89Zm59.64,0A7.4,7.4,0,0,0,200,63.3a6.57,6.57,0,0,0-2.34-1.64,8.55,8.55,0,0,0-6.14,0,6.61,6.61,0,0,0-2.35,1.64,7.27,7.27,0,0,0-1.5,2.59,11.74,11.74,0,0,0,0,6.91,7.27,7.27,0,0,0,1.5,2.59A6.58,6.58,0,0,0,191.48,77a8.7,8.7,0,0,0,6.14,0A6.54,6.54,0,0,0,200,75.39a7.4,7.4,0,0,0,1.49-2.59,11.74,11.74,0,0,0,0-6.91Zm0,0A7.4,7.4,0,0,0,200,63.3a6.57,6.57,0,0,0-2.34-1.64,8.55,8.55,0,0,0-6.14,0,6.61,6.61,0,0,0-2.35,1.64,7.27,7.27,0,0,0-1.5,2.59,11.74,11.74,0,0,0,0,6.91,7.27,7.27,0,0,0,1.5,2.59A6.58,6.58,0,0,0,191.48,77a8.7,8.7,0,0,0,6.14,0A6.54,6.54,0,0,0,200,75.39a7.4,7.4,0,0,0,1.49-2.59,11.74,11.74,0,0,0,0-6.91Zm-59.64,0a7.44,7.44,0,0,0-1.49-2.58A6.49,6.49,0,0,0,138,61.71a8.15,8.15,0,0,0-3.07-.56H130V77.53h4.89A8.15,8.15,0,0,0,138,77a6.49,6.49,0,0,0,2.34-1.61,7.44,7.44,0,0,0,1.49-2.58,11.67,11.67,0,0,0,0-6.89Zm-27.2-2.17a18.62,18.62,0,0,1-.69-2.16q-.17.65-.33,1.2c-.12.37-.23.7-.34,1l-3.18,8.33h7.74Zm0,0a18.62,18.62,0,0,1-.69-2.16q-.17.65-.33,1.2c-.12.37-.23.7-.34,1l-3.18,8.33h7.74Zm27.2,2.17a7.44,7.44,0,0,0-1.49-2.58A6.49,6.49,0,0,0,138,61.71a8.15,8.15,0,0,0-3.07-.56H130V77.53h4.89A8.15,8.15,0,0,0,138,77a6.49,6.49,0,0,0,2.34-1.61,7.44,7.44,0,0,0,1.49-2.58,11.67,11.67,0,0,0,0-6.89Zm0,0a7.44,7.44,0,0,0-1.49-2.58A6.49,6.49,0,0,0,138,61.71a8.15,8.15,0,0,0-3.07-.56H130V77.53h4.89A8.15,8.15,0,0,0,138,77a6.49,6.49,0,0,0,2.34-1.61,7.44,7.44,0,0,0,1.49-2.58,11.67,11.67,0,0,0,0-6.89Zm-27.2-2.17a18.62,18.62,0,0,1-.69-2.16q-.17.65-.33,1.2c-.12.37-.23.7-.34,1l-3.18,8.33h7.74Z"/><line class="cls-2" y1="20" x2="311" y2="20"/><line class="cls-2" y1="118" x2="311" y2="118"/><line class="cls-2" x1="19" x2="19" y2="138"/><line class="cls-2" x1="291" x2="291" y2="138"/></g></g></svg>