<svg xmlns="http://www.w3.org/2000/svg" viewBox="0 0 311 138"><defs><style>.cls-1{fill:#383838;}.cls-2{fill:none;stroke:#383838;stroke-miterlimit:10;}</style></defs><title>Asset 4</title><g id="Layer_2" data-name="Layer 2"><g id="Layer_1-2" data-name="Layer 1"><path class="cls-1" d="M186.9,65.89a7.4,7.4,0,0,0-1.49-2.59,6.4,6.4,0,0,0-2.34-1.64,8.53,8.53,0,0,0-6.13,0,6.52,6.52,0,0,0-2.35,1.64,7.27,7.27,0,0,0-1.5,2.59,11.53,11.53,0,0,0,0,6.91,7.27,7.27,0,0,0,1.5,2.59A6.49,6.49,0,0,0,176.94,77a8.67,8.67,0,0,0,6.13,0,6.37,6.37,0,0,0,2.34-1.63,7.4,7.4,0,0,0,1.49-2.59,11.53,11.53,0,0,0,0-6.91ZM204.58,62a6,6,0,0,0-3.67-.94h-3V69h2.91a7,7,0,0,0,2.16-.3,4.44,4.44,0,0,0,1.57-.84,3.51,3.51,0,0,0,1-1.31,4.28,4.28,0,0,0,.31-1.67A3.35,3.35,0,0,0,204.58,62Zm0,0a6,6,0,0,0-3.67-.94h-3V69h2.91a7,7,0,0,0,2.16-.3,4.44,4.44,0,0,0,1.57-.84,3.51,3.51,0,0,0,1-1.31,4.28,4.28,0,0,0,.31-1.67A3.35,3.35,0,0,0,204.58,62ZM186.9,65.89a7.4,7.4,0,0,0-1.49-2.59,6.4,6.4,0,0,0-2.34-1.64,8.53,8.53,0,0,0-6.13,0,6.52,6.52,0,0,0-2.35,1.64,7.27,7.27,0,0,0-1.5,2.59,11.53,11.53,0,0,0,0,6.91,7.27,7.27,0,0,0,1.5,2.59A6.49,6.49,0,0,0,176.94,77a8.67,8.67,0,0,0,6.13,0,6.37,6.37,0,0,0,2.34-1.63,7.4,7.4,0,0,0,1.49-2.59,11.53,11.53,0,0,0,0-6.91ZM19,20v98H291V20ZM96,76.18a6.38,6.38,0,0,1-1.42,2.18,6.48,6.48,0,0,1-2.29,1.46,8.26,8.26,0,0,1-3.08.53,9.52,9.52,0,0,1-2-.2,9.26,9.26,0,0,1-1.85-.57,9,9,0,0,1-1.62-.88,8.13,8.13,0,0,1-1.36-1.17L83.31,76a1.18,1.18,0,0,1,.33-.3.74.74,0,0,1,.42-.12,1.23,1.23,0,0,1,.73.33c.28.22.62.47,1,.73a7.64,7.64,0,0,0,1.46.73,6.38,6.38,0,0,0,3.83.07,3.72,3.72,0,0,0,1.31-.75,3.26,3.26,0,0,0,.82-1.18A4,4,0,0,0,93.51,74a2.58,2.58,0,0,0-.43-1.55,3.55,3.55,0,0,0-1.16-1,8.41,8.41,0,0,0-1.63-.69l-1.88-.59c-.64-.21-1.26-.45-1.87-.72a6.21,6.21,0,0,1-1.64-1.05,4.79,4.79,0,0,1-1.15-1.64,6,6,0,0,1-.44-2.42,5.78,5.78,0,0,1,.45-2.24,5.65,5.65,0,0,1,1.32-1.91,6.38,6.38,0,0,1,2.12-1.33,7.63,7.63,0,0,1,2.88-.51,9.48,9.48,0,0,1,3.34.58,7.84,7.84,0,0,1,2.64,1.66l-.78,1.51a1.24,1.24,0,0,1-.31.38.7.7,0,0,1-.42.12,1.08,1.08,0,0,1-.62-.25c-.23-.16-.51-.35-.86-.55a6.55,6.55,0,0,0-1.24-.56A5.43,5.43,0,0,0,90.11,61a5.22,5.22,0,0,0-1.66.25,3.53,3.53,0,0,0-1.19.68,2.87,2.87,0,0,0-.73,1,3.24,3.24,0,0,0-.25,1.25,2.25,2.25,0,0,0,.45,1.44,3.75,3.75,0,0,0,1.16,1,9.08,9.08,0,0,0,1.63.7l1.88.63a17.72,17.72,0,0,1,1.87.74,6.5,6.5,0,0,1,1.64,1.06,4.68,4.68,0,0,1,1.16,1.56,5.07,5.07,0,0,1,.44,2.25A7.36,7.36,0,0,1,96,76.18Zm17.78,3.93H100.46V58.57h13.35v2.6H103.67V68h8.16V70.5h-8.16v7h10.15Zm17.31,0H117.77V58.57h13.35v2.6H121V68h8.16V70.5H121v7h10.15Zm34.18,0h-2.79V64.78c0-.23,0-.47,0-.73s0-.53.05-.8l-7.17,13.16a1.23,1.23,0,0,1-1.16.73h-.45a1.19,1.19,0,0,1-1.14-.73l-7.3-13.2a14.74,14.74,0,0,1,.09,1.57V80.11h-2.81V58.57H145a1.94,1.94,0,0,1,.66.09.9.9,0,0,1,.44.45l7.2,12.9a9.09,9.09,0,0,1,.39.83c.12.29.23.58.34.87a14.46,14.46,0,0,1,.74-1.71l7.06-12.89a.82.82,0,0,1,.43-.45,1.88,1.88,0,0,1,.65-.09h2.37Zm24.62-6.33a10.22,10.22,0,0,1-2.18,3.48,9.87,9.87,0,0,1-3.37,2.27,12.14,12.14,0,0,1-8.72,0,9.82,9.82,0,0,1-3.38-2.27,10.38,10.38,0,0,1-2.18-3.48,13,13,0,0,1,0-8.86,10.32,10.32,0,0,1,2.18-3.49,10,10,0,0,1,3.38-2.28,12,12,0,0,1,8.72,0,10,10,0,0,1,3.37,2.28,10.17,10.17,0,0,1,2.18,3.49,13,13,0,0,1,0,8.86ZM208,80.11a1.34,1.34,0,0,1-1.25-.67L201.44,72a1.54,1.54,0,0,0-.56-.53,1.93,1.93,0,0,0-.9-.16H197.9v8.83h-3.2V58.57h6.21a13.42,13.42,0,0,1,3.59.43A6.9,6.9,0,0,1,207,60.22a4.79,4.79,0,0,1,1.46,1.89,6.81,6.81,0,0,1,.13,4.61,5.54,5.54,0,0,1-1,1.78,6.33,6.33,0,0,1-1.62,1.35,8,8,0,0,1-2.18.87,3.33,3.33,0,0,1,1,1l6.06,8.38Zm19,0H213.62V58.57H227v2.6H216.83V68H225V70.5h-8.16v7H227ZM205.49,66.5a4.28,4.28,0,0,0,.31-1.67A3.35,3.35,0,0,0,204.58,62a6,6,0,0,0-3.67-.94h-3V69h2.91a7,7,0,0,0,2.16-.3,4.44,4.44,0,0,0,1.57-.84A3.51,3.51,0,0,0,205.49,66.5Zm-20.08-3.2a6.4,6.4,0,0,0-2.34-1.64,8.53,8.53,0,0,0-6.13,0,6.52,6.52,0,0,0-2.35,1.64,7.27,7.27,0,0,0-1.5,2.59,11.53,11.53,0,0,0,0,6.91,7.27,7.27,0,0,0,1.5,2.59A6.49,6.49,0,0,0,176.94,77a8.67,8.67,0,0,0,6.13,0,6.37,6.37,0,0,0,2.34-1.63,7.4,7.4,0,0,0,1.49-2.59,11.53,11.53,0,0,0,0-6.91A7.4,7.4,0,0,0,185.41,63.3Zm1.49,2.59a7.4,7.4,0,0,0-1.49-2.59,6.4,6.4,0,0,0-2.34-1.64,8.53,8.53,0,0,0-6.13,0,6.52,6.52,0,0,0-2.35,1.64,7.27,7.27,0,0,0-1.5,2.59,11.53,11.53,0,0,0,0,6.91,7.27,7.27,0,0,0,1.5,2.59A6.49,6.49,0,0,0,176.94,77a8.67,8.67,0,0,0,6.13,0,6.37,6.37,0,0,0,2.34-1.63,7.4,7.4,0,0,0,1.49-2.59,11.53,11.53,0,0,0,0-6.91Zm0,0a7.4,7.4,0,0,0-1.49-2.59,6.4,6.4,0,0,0-2.34-1.64,8.53,8.53,0,0,0-6.13,0,6.52,6.52,0,0,0-2.35,1.64,7.27,7.27,0,0,0-1.5,2.59,11.53,11.53,0,0,0,0,6.91,7.27,7.27,0,0,0,1.5,2.59A6.49,6.49,0,0,0,176.94,77a8.67,8.67,0,0,0,6.13,0,6.37,6.37,0,0,0,2.34-1.63,7.4,7.4,0,0,0,1.49-2.59,11.53,11.53,0,0,0,0-6.91Z"/><line class="cls-2" y1="20" x2="311" y2="20"/><line class="cls-2" y1="118" x2="311" y2="118"/><line class="cls-2" x1="19" x2="19" y2="138"/><line class="cls-2" x1="291" x2="291" y2="138"/></g></g></svg>